<svg width="2074" height="656" viewBox="0 0 2074 656" fill="none" xmlns="http://www.w3.org/2000/svg">
<path d="M650.963 438V219.818H697.092V399.967H790.629V438H650.963ZM866.988 441.089C856.547 441.089 847.243 439.278 839.076 435.656C830.908 431.963 824.445 426.53 819.686 419.357C814.999 412.112 812.655 403.092 812.655 392.297C812.655 383.206 814.324 375.571 817.662 369.392C821 363.213 825.546 358.241 831.299 354.477C837.051 350.713 843.586 347.872 850.901 345.955C858.287 344.037 866.029 342.688 874.125 341.906C883.642 340.912 891.313 339.989 897.137 339.136C902.961 338.213 907.186 336.864 909.814 335.088C912.442 333.312 913.756 330.685 913.756 327.205V326.565C913.756 319.818 911.625 314.598 907.364 310.905C903.174 307.212 897.208 305.365 889.466 305.365C881.299 305.365 874.8 307.176 869.971 310.798C865.141 314.349 861.945 318.824 860.382 324.222L818.408 320.812C820.539 310.869 824.729 302.276 830.979 295.031C837.229 287.716 845.29 282.105 855.162 278.199C865.105 274.222 876.611 272.233 889.679 272.233C898.77 272.233 907.471 273.298 915.78 275.429C924.161 277.56 931.583 280.862 938.046 285.337C944.58 289.811 949.729 295.564 953.493 302.595C957.257 309.555 959.14 317.901 959.14 327.631V438H916.1V415.308H914.821C912.194 420.422 908.678 424.932 904.275 428.838C899.871 432.673 894.58 435.692 888.401 437.893C882.222 440.024 875.084 441.089 866.988 441.089ZM879.985 409.768C886.661 409.768 892.556 408.455 897.669 405.827C902.783 403.128 906.796 399.506 909.708 394.96C912.62 390.415 914.076 385.266 914.076 379.513V362.148C912.655 363.071 910.702 363.923 908.216 364.705C905.801 365.415 903.067 366.089 900.013 366.729C896.959 367.297 893.905 367.83 890.851 368.327C887.797 368.753 885.027 369.143 882.542 369.499C877.215 370.28 872.563 371.523 868.586 373.227C864.608 374.932 861.519 377.24 859.317 380.152C857.115 382.993 856.015 386.544 856.015 390.805C856.015 396.984 858.252 401.707 862.726 404.974C867.272 408.17 873.025 409.768 879.985 409.768ZM1081.39 274.364V308.455H982.843V274.364H1081.39ZM1005.22 235.159H1050.6V387.716C1050.6 391.906 1051.24 395.173 1052.52 397.517C1053.8 399.79 1055.57 401.388 1057.84 402.311C1060.19 403.234 1062.89 403.696 1065.94 403.696C1068.07 403.696 1070.2 403.518 1072.33 403.163C1074.46 402.737 1076.1 402.418 1077.23 402.205L1084.37 435.976C1082.1 436.686 1078.9 437.503 1074.78 438.426C1070.66 439.42 1065.66 440.024 1059.76 440.237C1048.82 440.663 1039.24 439.207 1031 435.869C1022.83 432.531 1016.47 427.347 1011.93 420.315C1007.38 413.284 1005.14 404.406 1005.22 393.682V235.159ZM1183.13 441.196C1166.37 441.196 1151.95 437.645 1139.87 430.543C1127.87 423.369 1118.64 413.426 1112.18 400.713C1105.78 388 1102.59 373.369 1102.59 356.821C1102.59 340.06 1105.82 325.358 1112.28 312.716C1118.82 300.003 1128.08 290.095 1140.09 282.993C1152.09 275.82 1166.37 272.233 1182.91 272.233C1197.19 272.233 1209.69 274.825 1220.41 280.01C1231.14 285.195 1239.63 292.474 1245.88 301.849C1252.13 311.224 1255.57 322.233 1256.21 334.875H1213.38C1212.18 326.707 1208.98 320.138 1203.8 315.166C1198.68 310.124 1191.97 307.602 1183.66 307.602C1176.63 307.602 1170.49 309.52 1165.23 313.355C1160.05 317.119 1156 322.624 1153.08 329.868C1150.17 337.112 1148.72 345.884 1148.72 356.182C1148.72 366.622 1150.14 375.5 1152.98 382.815C1155.89 390.131 1159.97 395.706 1165.23 399.541C1170.49 403.376 1176.63 405.294 1183.66 405.294C1188.84 405.294 1193.5 404.229 1197.62 402.098C1201.81 399.967 1205.25 396.878 1207.95 392.83C1210.72 388.71 1212.53 383.774 1213.38 378.021H1256.21C1255.5 390.521 1252.09 401.53 1245.98 411.047C1239.95 420.493 1231.6 427.879 1220.95 433.206C1210.29 438.533 1197.69 441.196 1183.13 441.196ZM1330.65 343.398V438H1285.27V219.818H1329.37V303.234H1331.29C1334.98 293.575 1340.95 286.011 1349.19 280.543C1357.43 275.003 1367.76 272.233 1380.19 272.233C1391.55 272.233 1401.46 274.719 1409.91 279.69C1418.43 284.591 1425.04 291.658 1429.73 300.891C1434.49 310.053 1436.83 321.026 1436.76 333.81V438H1391.38V341.906C1391.45 331.821 1388.89 323.973 1383.7 318.362C1378.59 312.751 1371.42 309.946 1362.18 309.946C1356.01 309.946 1350.54 311.26 1345.78 313.888C1341.09 316.516 1337.4 320.351 1334.7 325.393C1332.07 330.365 1330.72 336.366 1330.65 343.398ZM1473.33 438V219.818H1560.68C1576.74 219.818 1590.12 222.197 1600.85 226.956C1611.57 231.714 1619.63 238.32 1625.03 246.771C1630.43 255.152 1633.13 264.811 1633.13 275.749C1633.13 284.271 1631.42 291.764 1628.01 298.227C1624.6 304.619 1619.92 309.875 1613.95 313.994C1608.06 318.043 1601.31 320.919 1593.71 322.624V324.754C1602.02 325.109 1609.8 327.453 1617.04 331.786C1624.36 336.118 1630.29 342.19 1634.83 350.003C1639.38 357.744 1641.65 366.977 1641.65 377.702C1641.65 389.278 1638.77 399.612 1633.02 408.703C1627.34 417.723 1618.92 424.861 1607.77 430.116C1596.62 435.372 1582.88 438 1566.54 438H1473.33ZM1519.46 400.287H1557.06C1569.92 400.287 1579.29 397.837 1585.19 392.936C1591.08 387.964 1594.03 381.359 1594.03 373.121C1594.03 367.084 1592.57 361.757 1589.66 357.141C1586.75 352.524 1582.59 348.902 1577.2 346.274C1571.87 343.646 1565.51 342.332 1558.13 342.332H1519.46V400.287ZM1519.46 311.118H1553.65C1559.97 311.118 1565.58 310.017 1570.49 307.815C1575.46 305.543 1579.36 302.347 1582.2 298.227C1585.12 294.108 1586.57 289.172 1586.57 283.419C1586.57 275.536 1583.77 269.179 1578.16 264.349C1572.62 259.52 1564.73 257.105 1554.51 257.105H1519.46V311.118ZM1670.81 438V274.364H1716.2V438H1670.81ZM1693.61 253.27C1686.87 253.27 1681.08 251.033 1676.25 246.558C1671.49 242.013 1669.11 236.58 1669.11 230.259C1669.11 224.009 1671.49 218.646 1676.25 214.172C1681.08 209.626 1686.87 207.354 1693.61 207.354C1700.36 207.354 1706.11 209.626 1710.87 214.172C1715.7 218.646 1718.12 224.009 1718.12 230.259C1718.12 236.58 1715.7 242.013 1710.87 246.558C1706.11 251.033 1700.36 253.27 1693.61 253.27ZM1826.49 441.196C1809.94 441.196 1795.63 437.68 1783.55 430.649C1771.55 423.547 1762.28 413.675 1755.75 401.033C1749.21 388.32 1745.95 373.582 1745.95 356.821C1745.95 339.918 1749.21 325.145 1755.75 312.503C1762.28 299.79 1771.55 289.918 1783.55 282.886C1795.63 275.784 1809.94 272.233 1826.49 272.233C1843.04 272.233 1857.31 275.784 1869.31 282.886C1881.39 289.918 1890.69 299.79 1897.23 312.503C1903.76 325.145 1907.03 339.918 1907.03 356.821C1907.03 373.582 1903.76 388.32 1897.23 401.033C1890.69 413.675 1881.39 423.547 1869.31 430.649C1857.31 437.68 1843.04 441.196 1826.49 441.196ZM1826.7 406.04C1834.23 406.04 1840.51 403.909 1845.56 399.648C1850.6 395.315 1854.4 389.42 1856.96 381.963C1859.58 374.506 1860.9 366.018 1860.9 356.501C1860.9 346.984 1859.58 338.497 1856.96 331.04C1854.4 323.582 1850.6 317.687 1845.56 313.355C1840.51 309.023 1834.23 306.857 1826.7 306.857C1819.1 306.857 1812.71 309.023 1807.52 313.355C1802.41 317.687 1798.54 323.582 1795.91 331.04C1793.35 338.497 1792.08 346.984 1792.08 356.501C1792.08 366.018 1793.35 374.506 1795.91 381.963C1798.54 389.42 1802.41 395.315 1807.52 399.648C1812.71 403.909 1819.1 406.04 1826.7 406.04Z" fill="white"/>
<path d="M285.5 108L230.5 163L395 326.5L228.5 494L283 548.5L505 326.5L285.5 108Z" fill="white"/>
<rect x="394" y="165.062" width="82.1127" height="82.1127" transform="rotate(-45 394 165.062)" fill="white"/>
<rect x="228" y="328.062" width="82.1127" height="82.1127" transform="rotate(-45 228 328.062)" fill="white"/>
<rect x="394" y="491.062" width="82.1127" height="82.1127" transform="rotate(-45 394 491.062)" fill="white"/>
</svg>
